<svg xmlns="http://www.w3.org/2000/svg" xmlns:xlink="http://www.w3.org/1999/xlink" width="596" viewBox="0 0 446.88 631.499986" height="842" preserveAspectRatio="xMidYMid meet"><defs><clipPath id="af88dde67a"><path d="M 98.15625 249 L 365 249 L 365 300 L 98.15625 300 Z M 98.15625 249" clip-rule="nonzero"/></clipPath><clipPath id="5a86c244e9"><path d="M 96.011719 150.300781 L 371.777344 147.414062 L 373.777344 338.5 L 98.011719 341.390625 Z M 96.011719 150.300781" clip-rule="nonzero"/></clipPath><clipPath id="f49d85a12d"><path d="M -51.972656 -18.339844 L 584.988281 -25.011719 L 594.414062 874.976562 L -42.546875 881.648438 Z M -51.972656 -18.339844" clip-rule="nonzero"/></clipPath><clipPath id="bbb649070b"><path d="M 92.683594 88.082031 L 368.335938 85.195312 L 370.820312 322.414062 L 95.167969 325.300781 Z M 92.683594 88.082031" clip-rule="nonzero"/></clipPath><clipPath id="9dbd10d304"><path d="M 98.15625 243 L 369 243 L 369 303 L 98.15625 303 Z M 98.15625 243" clip-rule="nonzero"/></clipPath><clipPath id="65e659037b"><path d="M 96.011719 150.300781 L 371.777344 147.414062 L 373.777344 338.5 L 98.011719 341.390625 Z M 96.011719 150.300781" clip-rule="nonzero"/></clipPath><clipPath id="25615b465b"><path d="M -51.972656 -18.339844 L 584.988281 -25.011719 L 594.414062 874.976562 L -42.546875 881.648438 Z M -51.972656 -18.339844" clip-rule="nonzero"/></clipPath><clipPath id="4fc3cb4fa3"><path d="M 92.683594 88.082031 L 368.335938 85.195312 L 370.820312 322.414062 L 95.167969 325.300781 Z M 92.683594 88.082031" clip-rule="nonzero"/></clipPath><clipPath id="4c55d17501"><path d="M 94.914062 245.902344 L 368.019531 243.042969 L 368.613281 299.914062 L 95.507812 302.773438 Z M 94.914062 245.902344" clip-rule="nonzero"/></clipPath><clipPath id="916b5b6c70"><path d="M 119 302 L 337 302 L 337 324 L 119 324 Z M 119 302" clip-rule="nonzero"/></clipPath><clipPath id="ed396f674a"><path d="M 96.011719 150.300781 L 371.777344 147.414062 L 373.777344 338.5 L 98.011719 341.390625 Z M 96.011719 150.300781" clip-rule="nonzero"/></clipPath><clipPath id="9bb0a03264"><path d="M -51.972656 -18.339844 L 584.988281 -25.011719 L 594.414062 874.976562 L -42.546875 881.648438 Z M -51.972656 -18.339844" clip-rule="nonzero"/></clipPath><clipPath id="4670e0db07"><path d="M 92.683594 88.082031 L 368.335938 85.195312 L 370.820312 322.414062 L 95.167969 325.300781 Z M 92.683594 88.082031" clip-rule="nonzero"/></clipPath><clipPath id="f01711dfd1"><path d="M 119.152344 304.878906 L 336.996094 302.597656 L 337.195312 321.695312 L 119.351562 323.976562 Z M 119.152344 304.878906" clip-rule="nonzero"/></clipPath><clipPath id="7af5c40698"><path d="M 180 156 L 267 156 L 267 243 L 180 243 Z M 180 156" clip-rule="nonzero"/></clipPath><clipPath id="72ba07444c"><path d="M 96.011719 150.300781 L 371.777344 147.414062 L 373.777344 338.5 L 98.011719 341.390625 Z M 96.011719 150.300781" clip-rule="nonzero"/></clipPath><clipPath id="aea9832c24"><path d="M -51.972656 -18.339844 L 584.988281 -25.011719 L 594.414062 874.976562 L -42.546875 881.648438 Z M -51.972656 -18.339844" clip-rule="nonzero"/></clipPath><clipPath id="177f6f31ed"><path d="M 92.683594 88.082031 L 368.335938 85.195312 L 370.820312 322.414062 L 95.167969 325.300781 Z M 92.683594 88.082031" clip-rule="nonzero"/></clipPath><clipPath id="d7af95ec32"><path d="M 178 154 L 269 154 L 269 245 L 178 245 Z M 178 154" clip-rule="nonzero"/></clipPath><clipPath id="858fee2913"><path d="M 96.011719 150.300781 L 371.777344 147.414062 L 373.777344 338.5 L 98.011719 341.390625 Z M 96.011719 150.300781" clip-rule="nonzero"/></clipPath><clipPath id="7d7510235e"><path d="M -51.972656 -18.339844 L 584.988281 -25.011719 L 594.414062 874.976562 L -42.546875 881.648438 Z M -51.972656 -18.339844" clip-rule="nonzero"/></clipPath><clipPath id="e57b54b47c"><path d="M 92.683594 88.082031 L 368.335938 85.195312 L 370.820312 322.414062 L 95.167969 325.300781 Z M 92.683594 88.082031" clip-rule="nonzero"/></clipPath><clipPath id="9f226ae64c"><path d="M 178.074219 154.867188 L 268.574219 153.917969 L 269.523438 244.390625 L 179.019531 245.339844 Z M 178.074219 154.867188" clip-rule="nonzero"/></clipPath><clipPath id="eed6abd3e7"><path d="M 180 156 L 267 156 L 267 243 L 180 243 Z M 180 156" clip-rule="nonzero"/></clipPath><clipPath id="f3691aa029"><path d="M 96.011719 150.300781 L 371.777344 147.414062 L 373.777344 338.5 L 98.011719 341.390625 Z M 96.011719 150.300781" clip-rule="nonzero"/></clipPath><clipPath id="2b309adc27"><path d="M -51.972656 -18.339844 L 584.988281 -25.011719 L 594.414062 874.976562 L -42.546875 881.648438 Z M -51.972656 -18.339844" clip-rule="nonzero"/></clipPath><clipPath id="08280a5681"><path d="M 92.683594 88.082031 L 368.335938 85.195312 L 370.820312 322.414062 L 95.167969 325.300781 Z M 92.683594 88.082031" clip-rule="nonzero"/></clipPath><clipPath id="8b8ad7f5cf"><path d="M 110 150.957031 L 337 150.957031 L 337 313 L 110 313 Z M 110 150.957031" clip-rule="nonzero"/></clipPath><clipPath id="d41023a160"><path d="M 96.011719 150.300781 L 371.777344 147.414062 L 373.777344 338.5 L 98.011719 341.390625 Z M 96.011719 150.300781" clip-rule="nonzero"/></clipPath><clipPath id="e45d3233be"><path d="M -51.972656 -18.339844 L 584.988281 -25.011719 L 594.414062 874.976562 L -42.546875 881.648438 Z M -51.972656 -18.339844" clip-rule="nonzero"/></clipPath><clipPath id="d49c36d1ad"><path d="M 92.683594 88.082031 L 368.335938 85.195312 L 370.820312 322.414062 L 95.167969 325.300781 Z M 92.683594 88.082031" clip-rule="nonzero"/></clipPath><clipPath id="cc4c9f552a"><path d="M 110.222656 88.414062 L 334.472656 86.066406 L 336.824219 310.351562 L 112.570312 312.699219 Z M 110.222656 88.414062" clip-rule="nonzero"/></clipPath><clipPath id="08ae8a6a41"><path d="M 211 164 L 223 164 L 223 176 L 211 176 Z M 211 164" clip-rule="nonzero"/></clipPath><clipPath id="019db23657"><path d="M 96.011719 150.300781 L 371.777344 147.414062 L 373.777344 338.5 L 98.011719 341.390625 Z M 96.011719 150.300781" clip-rule="nonzero"/></clipPath><clipPath id="d8acfefd5b"><path d="M -51.972656 -18.339844 L 584.988281 -25.011719 L 594.414062 874.976562 L -42.546875 881.648438 Z M -51.972656 -18.339844" clip-rule="nonzero"/></clipPath><clipPath id="0841c9fc7d"><path d="M 92.683594 88.082031 L 368.335938 85.195312 L 370.820312 322.414062 L 95.167969 325.300781 Z M 92.683594 88.082031" clip-rule="nonzero"/></clipPath><clipPath id="01e9a53ef1"><path d="M 211.382812 164.058594 L 222.597656 163.941406 L 222.714844 175.15625 L 211.5 175.273438 Z M 211.382812 164.058594" clip-rule="nonzero"/></clipPath><clipPath id="6ade9c01dd"><path d="M 175 151 L 264 151 L 264 218 L 175 218 Z M 175 151" clip-rule="nonzero"/></clipPath><clipPath id="30462c797f"><path d="M 96.011719 150.300781 L 371.777344 147.414062 L 373.777344 338.5 L 98.011719 341.390625 Z M 96.011719 150.300781" clip-rule="nonzero"/></clipPath><clipPath id="1fe067b869"><path d="M -51.972656 -18.339844 L 584.988281 -25.011719 L 594.414062 874.976562 L -42.546875 881.648438 Z M -51.972656 -18.339844" clip-rule="nonzero"/></clipPath><clipPath id="7807632a79"><path d="M 92.683594 88.082031 L 368.335938 85.195312 L 370.820312 322.414062 L 95.167969 325.300781 Z M 92.683594 88.082031" clip-rule="nonzero"/></clipPath><clipPath id="20fab04a89"><path d="M 225 194 L 257 194 L 257 235 L 225 235 Z M 225 194" clip-rule="nonzero"/></clipPath><clipPath id="d89e753929"><path d="M 96.011719 150.300781 L 371.777344 147.414062 L 373.777344 338.5 L 98.011719 341.390625 Z M 96.011719 150.300781" clip-rule="nonzero"/></clipPath><clipPath id="775fdeef90"><path d="M -51.972656 -18.339844 L 584.988281 -25.011719 L 594.414062 874.976562 L -42.546875 881.648438 Z M -51.972656 -18.339844" clip-rule="nonzero"/></clipPath><clipPath id="60188664b4"><path d="M 92.683594 88.082031 L 368.335938 85.195312 L 370.820312 322.414062 L 95.167969 325.300781 Z M 92.683594 88.082031" clip-rule="nonzero"/></clipPath><clipPath id="abe3b8db6d"><path d="M 225.273438 194.339844 L 255.707031 194.019531 L 256.125 234.070312 L 225.691406 234.390625 Z M 225.273438 194.339844" clip-rule="nonzero"/></clipPath><clipPath id="cb4367e657"><path d="M 209 196 L 271 196 L 271 249 L 209 249 Z M 209 196" clip-rule="nonzero"/></clipPath><clipPath id="27724b69d3"><path d="M 96.011719 150.300781 L 371.777344 147.414062 L 373.777344 338.5 L 98.011719 341.390625 Z M 96.011719 150.300781" clip-rule="nonzero"/></clipPath><clipPath id="ac426640ab"><path d="M -51.972656 -18.339844 L 584.988281 -25.011719 L 594.414062 874.976562 L -42.546875 881.648438 Z M -51.972656 -18.339844" clip-rule="nonzero"/></clipPath><clipPath id="8b9dfd7422"><path d="M 92.683594 88.082031 L 368.335938 85.195312 L 370.820312 322.414062 L 95.167969 325.300781 Z M 92.683594 88.082031" clip-rule="nonzero"/></clipPath><clipPath id="fdbe326c73"><path d="M 195 184 L 244 184 L 244 233 L 195 233 Z M 195 184" clip-rule="nonzero"/></clipPath><clipPath id="cb6e7dde73"><path d="M 96.011719 150.300781 L 371.777344 147.414062 L 373.777344 338.5 L 98.011719 341.390625 Z M 96.011719 150.300781" clip-rule="nonzero"/></clipPath><clipPath id="33dc05cefe"><path d="M -51.972656 -18.339844 L 584.988281 -25.011719 L 594.414062 874.976562 L -42.546875 881.648438 Z M -51.972656 -18.339844" clip-rule="nonzero"/></clipPath><clipPath id="2dcfbfbd84"><path d="M 92.683594 88.082031 L 368.335938 85.195312 L 370.820312 322.414062 L 95.167969 325.300781 Z M 92.683594 88.082031" clip-rule="nonzero"/></clipPath><clipPath id="9d6d0f0b9a"><path d="M 195.285156 184.753906 L 242.539062 184.257812 L 243.035156 231.515625 L 195.78125 232.011719 Z M 195.285156 184.753906" clip-rule="nonzero"/></clipPath><clipPath id="dce970702e"><path d="M 214 198 L 223 198 L 223 217 L 214 217 Z M 214 198" clip-rule="nonzero"/></clipPath><clipPath id="85c98dc13c"><path d="M 96.011719 150.300781 L 371.777344 147.414062 L 373.777344 338.5 L 98.011719 341.390625 Z M 96.011719 150.300781" clip-rule="nonzero"/></clipPath><clipPath id="2f7e1f5f30"><path d="M -51.972656 -18.339844 L 584.988281 -25.011719 L 594.414062 874.976562 L -42.546875 881.648438 Z M -51.972656 -18.339844" clip-rule="nonzero"/></clipPath><clipPath id="02ffd78f4d"><path d="M 92.683594 88.082031 L 368.335938 85.195312 L 370.820312 322.414062 L 95.167969 325.300781 Z M 92.683594 88.082031" clip-rule="nonzero"/></clipPath><clipPath id="0b2bd366ba"><path d="M 214.785156 199.035156 L 222.796875 198.949219 L 222.980469 216.570312 L 214.972656 216.65625 Z M 214.785156 199.035156" clip-rule="nonzero"/></clipPath><clipPath id="1aeef42a7a"><path d="M 214 230 L 233 230 L 233 238 L 214 238 Z M 214 230" clip-rule="nonzero"/></clipPath><clipPath id="a8ef57b02f"><path d="M 96.011719 150.300781 L 371.777344 147.414062 L 373.777344 338.5 L 98.011719 341.390625 Z M 96.011719 150.300781" clip-rule="nonzero"/></clipPath><clipPath id="e70a249c93"><path d="M -51.972656 -18.339844 L 584.988281 -25.011719 L 594.414062 874.976562 L -42.546875 881.648438 Z M -51.972656 -18.339844" clip-rule="nonzero"/></clipPath><clipPath id="27303fb144"><path d="M 92.683594 88.082031 L 368.335938 85.195312 L 370.820312 322.414062 L 95.167969 325.300781 Z M 92.683594 88.082031" clip-rule="nonzero"/></clipPath><clipPath id="717e0eab10"><path d="M 214.382812 230.304688 L 232.804688 230.113281 L 232.878906 237.296875 L 214.457031 237.488281 Z M 214.382812 230.304688" clip-rule="nonzero"/></clipPath></defs><g clip-path="url(#af88dde67a)"><g clip-path="url(#5a86c244e9)"><g clip-path="url(#f49d85a12d)"><g clip-path="url(#bbb649070b)"><path fill="#e3000f" d="M 119.875 249.097656 L 118.089844 257.839844 L 110.613281 257.921875 L 112.398438 249.175781 Z M 121.050781 260.292969 C 120.484375 261.375 120.035156 262.359375 119.703125 263.246094 C 119.5625 263.664062 119.414062 264.175781 119.269531 264.777344 C 119.113281 265.382812 118.953125 266.089844 118.769531 266.898438 L 113.273438 293.839844 C 113.078125 294.859375 112.992188 295.871094 113.003906 296.894531 C 113.007812 297.511719 113.113281 298.191406 113.328125 298.921875 L 98.941406 299.074219 C 99.523438 298.015625 99.972656 297.039062 100.273438 296.15625 C 100.582031 295.289062 100.894531 294.050781 101.222656 292.46875 L 106.71875 265.535156 C 106.917969 264.546875 107.011719 263.535156 107 262.476562 C 106.992188 261.839844 106.878906 261.15625 106.664062 260.445312 Z M 154.507812 259.945312 L 153.886719 267.929688 C 153.238281 267.367188 152.53125 266.960938 151.757812 266.714844 C 150.984375 266.464844 150.035156 266.347656 148.914062 266.359375 L 137.648438 266.476562 C 136.867188 266.488281 136.324219 266.558594 136.019531 266.707031 C 135.714844 266.859375 135.449219 267.15625 135.21875 267.613281 L 134.789062 269.226562 C 134.609375 270.023438 134.519531 270.578125 134.523438 270.875 C 134.53125 271.816406 135.179688 272.28125 136.464844 272.269531 L 146.222656 272.167969 C 147.898438 272.148438 149.113281 272.53125 149.875 273.3125 C 150.890625 274.390625 151.410156 275.714844 151.425781 277.277344 C 151.433594 277.929688 151.296875 278.941406 151.03125 280.304688 L 149.015625 290.113281 C 148.609375 292.089844 148.207031 293.539062 147.800781 294.457031 C 147.402344 295.367188 146.800781 296.164062 146.003906 296.828125 C 145.125 297.574219 144.246094 298.054688 143.367188 298.300781 C 142.855469 298.402344 142.195312 298.472656 141.394531 298.542969 C 140.597656 298.609375 139.570312 298.648438 138.3125 298.660156 L 117.140625 298.882812 L 117.945312 291.070312 C 118.828125 291.667969 119.597656 292.066406 120.242188 292.261719 C 120.550781 292.335938 120.984375 292.390625 121.53125 292.421875 C 122.085938 292.453125 122.816406 292.464844 123.726562 292.457031 L 134.203125 292.347656 C 135.070312 292.335938 135.640625 292.273438 135.917969 292.144531 C 136.195312 292.015625 136.433594 291.695312 136.613281 291.164062 C 137.042969 290.054688 137.25 289.050781 137.242188 288.144531 C 137.230469 287.230469 136.609375 286.773438 135.375 286.785156 L 126.320312 286.882812 C 122.308594 286.921875 120.285156 285.175781 120.246094 281.640625 C 120.238281 280.644531 120.4375 279.140625 120.859375 277.144531 L 122.691406 268.234375 C 123.019531 266.554688 123.421875 265.277344 123.894531 264.398438 C 124.378906 263.515625 125.09375 262.691406 126.058594 261.910156 C 126.808594 261.335938 127.65625 260.910156 128.601562 260.621094 C 129.539062 260.34375 130.648438 260.195312 131.917969 260.179688 Z M 156.71875 259.921875 L 186.542969 259.609375 L 186.03125 266.664062 C 185.238281 266.214844 184.296875 265.988281 183.207031 266 L 176.640625 266.070312 L 171.097656 293.234375 C 170.886719 294.234375 170.789062 295.25 170.800781 296.289062 C 170.804688 296.589844 170.824219 296.90625 170.878906 297.230469 C 170.925781 297.554688 171.023438 297.921875 171.152344 298.316406 L 156.765625 298.46875 C 157.351562 297.410156 157.789062 296.433594 158.101562 295.566406 C 158.40625 294.683594 158.722656 293.445312 159.050781 291.863281 L 164.277344 266.199219 L 157.367188 266.273438 C 156.21875 266.285156 155.214844 266.527344 154.34375 266.996094 Z M 210.285156 259.359375 L 216.234375 291.488281 C 216.390625 292.429688 216.53125 293.207031 216.683594 293.8125 C 216.835938 294.429688 216.992188 294.964844 217.179688 295.433594 C 217.496094 296.300781 217.964844 297.09375 218.582031 297.820312 L 203.453125 297.980469 C 203.949219 296.847656 204.195312 295.832031 204.1875 294.945312 C 204.179688 294.082031 204.054688 292.941406 203.804688 291.53125 L 203.082031 287.519531 L 188.046875 287.679688 L 184.433594 294.171875 C 183.738281 295.402344 183.394531 296.414062 183.402344 297.222656 L 183.535156 298.1875 L 174.890625 298.277344 C 176.121094 297.019531 177.460938 295.195312 178.894531 292.785156 L 195.921875 261.71875 C 195.488281 261.089844 195.113281 260.660156 194.796875 260.429688 C 194.480469 260.195312 193.972656 259.898438 193.265625 259.539062 Z M 201.984375 281.523438 L 199.34375 266.84375 L 191.296875 281.632812 Z M 240.316406 259.046875 L 249.152344 288.601562 L 254.191406 263.996094 C 254.390625 263.015625 254.492188 261.992188 254.484375 260.941406 C 254.476562 260.316406 254.371094 259.632812 254.179688 258.898438 L 261.496094 258.824219 C 260.933594 259.910156 260.476562 260.898438 260.140625 261.785156 C 260 262.203125 259.859375 262.714844 259.707031 263.320312 C 259.558594 263.933594 259.390625 264.636719 259.21875 265.457031 L 252.648438 297.464844 L 239.035156 297.605469 L 230.421875 268.476562 L 225.484375 292.664062 C 225.292969 293.664062 225.210938 294.679688 225.21875 295.71875 C 225.222656 296.019531 225.25 296.335938 225.292969 296.660156 C 225.347656 296.984375 225.429688 297.351562 225.554688 297.746094 L 218.238281 297.824219 C 218.804688 296.804688 219.261719 295.828125 219.59375 294.898438 C 219.71875 294.523438 219.886719 293.859375 220.109375 292.890625 C 220.25 292.351562 220.386719 291.789062 220.519531 291.222656 L 226.023438 264.300781 C 226.210938 263.316406 226.304688 262.296875 226.292969 261.238281 C 226.289062 260.589844 226.175781 259.921875 225.96875 259.195312 Z M 288.589844 277.449219 C 290.367188 277.699219 291.640625 278.15625 292.414062 278.824219 C 293.414062 279.664062 293.914062 280.820312 293.929688 282.304688 C 293.933594 282.605469 293.925781 282.84375 293.910156 283.003906 C 293.910156 283.179688 293.863281 283.429688 293.785156 283.769531 L 292.707031 289.027344 C 292.398438 290.613281 292.085938 291.789062 291.773438 292.554688 C 291.460938 293.316406 290.988281 294.066406 290.351562 294.785156 C 289.574219 295.660156 288.644531 296.265625 287.546875 296.605469 C 286.453125 296.945312 284.898438 297.125 282.875 297.148438 L 256.476562 297.421875 C 256.753906 296.90625 257.003906 296.402344 257.242188 295.921875 C 257.46875 295.425781 257.664062 294.953125 257.835938 294.5 C 257.953125 294.121094 258.128906 293.445312 258.351562 292.492188 C 258.488281 291.941406 258.621094 291.390625 258.761719 290.820312 L 264.253906 263.882812 C 264.453125 262.894531 264.546875 261.886719 264.535156 260.824219 C 264.53125 260.191406 264.417969 259.507812 264.203125 258.796875 L 289.21875 258.535156 C 291.523438 258.507812 293.128906 258.773438 294.035156 259.335938 C 294.9375 259.894531 295.6875 260.71875 296.28125 261.824219 C 296.9375 263.078125 297.273438 264.320312 297.285156 265.550781 C 297.304688 267.28125 296.972656 269.480469 296.292969 272.140625 C 295.992188 273.292969 295.523438 274.292969 294.890625 275.128906 C 294.253906 275.964844 293.53125 276.53125 292.722656 276.820312 C 292.15625 277.007812 291.507812 277.164062 290.761719 277.273438 C 290.015625 277.386719 289.296875 277.441406 288.589844 277.449219 Z M 274.449219 274.410156 L 280.917969 274.339844 C 281.152344 274.339844 281.371094 274.335938 281.570312 274.328125 C 281.761719 274.3125 281.945312 274.28125 282.113281 274.234375 C 282.289062 274.179688 282.441406 274.113281 282.578125 274.023438 C 282.707031 273.933594 282.847656 273.808594 283.007812 273.636719 C 283.378906 273.195312 283.699219 272.347656 283.964844 271.082031 L 284.660156 267.65625 L 284.761719 266.71875 C 284.75 265.535156 284.03125 264.945312 282.609375 264.960938 L 276.351562 265.027344 Z M 271.078125 290.914062 L 277.800781 290.84375 C 278.691406 290.832031 279.308594 290.644531 279.640625 290.277344 C 279.976562 289.90625 280.273438 289.09375 280.546875 287.828125 L 281.394531 283.707031 C 281.484375 283.253906 281.523438 282.890625 281.519531 282.609375 C 281.511719 281.933594 281.316406 281.441406 280.910156 281.148438 C 280.507812 280.855469 279.871094 280.707031 279.011719 280.714844 L 273.140625 280.777344 Z M 330.992188 258.097656 L 338.308594 258.019531 C 337.742188 259.105469 337.285156 260.09375 336.957031 260.980469 C 336.820312 261.398438 336.679688 261.910156 336.527344 262.515625 C 336.378906 263.128906 336.210938 263.832031 336.035156 264.652344 L 331.277344 287.953125 C 330.882812 289.984375 330.519531 291.4375 330.203125 292.304688 C 329.921875 293.140625 329.480469 293.902344 328.859375 294.601562 C 328.019531 295.519531 326.953125 296.117188 325.628906 296.417969 C 324.757812 296.613281 324.132812 296.714844 323.757812 296.71875 L 305.066406 296.914062 C 304.296875 296.921875 303.34375 296.863281 302.195312 296.742188 C 301.496094 296.746094 300.851562 296.582031 300.261719 296.242188 C 299.679688 295.902344 299.15625 295.414062 298.671875 294.773438 C 297.804688 293.582031 297.355469 292.074219 297.335938 290.242188 C 297.324219 289.097656 297.464844 287.824219 297.757812 286.425781 L 302.464844 263.484375 C 302.652344 262.441406 302.746094 261.4375 302.738281 260.453125 C 302.734375 260.15625 302.707031 259.839844 302.652344 259.496094 C 302.601562 259.15625 302.511719 258.789062 302.386719 258.394531 L 316.773438 258.246094 C 316.207031 259.324219 315.75 260.308594 315.414062 261.199219 C 315.15625 261.953125 314.855469 263.171875 314.515625 264.847656 L 310.066406 286.605469 C 309.910156 287.367188 309.835938 287.945312 309.839844 288.355469 C 309.851562 289.207031 310.066406 289.773438 310.484375 290.066406 C 310.90625 290.351562 311.714844 290.488281 312.921875 290.476562 L 322.710938 290.371094 C 323.886719 290.359375 324.710938 290.09375 325.1875 289.558594 C 325.441406 289.273438 325.636719 288.964844 325.796875 288.617188 L 326.3125 286.296875 L 331.027344 263.199219 C 331.234375 262.21875 331.328125 261.207031 331.316406 260.167969 C 331.308594 259.519531 331.207031 258.835938 330.992188 258.097656 Z M 364.839844 289.0625 L 362.515625 296.3125 L 333.109375 296.621094 C 333.382812 296.105469 333.636719 295.601562 333.875 295.117188 C 334.097656 294.625 334.292969 294.148438 334.46875 293.695312 C 334.582031 293.320312 334.761719 292.640625 334.988281 291.6875 C 335.121094 291.140625 335.253906 290.585938 335.390625 290.019531 L 340.886719 263.082031 C 341.085938 262.09375 341.179688 261.082031 341.171875 260.023438 C 341.164062 259.386719 341.050781 258.703125 340.832031 257.992188 L 355.222656 257.84375 C 354.652344 258.921875 354.203125 259.90625 353.871094 260.796875 C 353.730469 261.210938 353.585938 261.726562 353.4375 262.324219 C 353.285156 262.929688 353.121094 263.636719 352.9375 264.445312 L 347.707031 290.109375 L 360.222656 289.980469 C 360.515625 289.976562 360.78125 289.964844 361.015625 289.941406 C 361.246094 289.917969 361.464844 289.890625 361.648438 289.832031 C 362.714844 289.710938 363.777344 289.449219 364.839844 289.0625 Z M 364.839844 289.0625" fill-opacity="1" fill-rule="nonzero"/></g></g></g></g><g clip-path="url(#9dbd10d304)"><g clip-path="url(#65e659037b)"><g clip-path="url(#25615b465b)"><g clip-path="url(#4fc3cb4fa3)"><g clip-path="url(#4c55d17501)"><path stroke-linecap="butt" transform="matrix(1.067495, -0.0111792, 0.0111278, 1.062592, -56.06809, -440.941178)" fill="none" stroke-linejoin="miter" d="M 158.031871 651.054741 L 156.274016 659.263477 L 149.27018 659.263315 L 151.028035 651.054579 Z M 159.023373 661.601026 C 158.482224 662.613627 158.051798 663.535489 157.732097 664.366612 C 157.596316 664.754856 157.452221 665.238592 157.310942 665.803233 C 157.158649 666.371435 157.0017 667.035167 156.821801 667.794238 L 151.409505 693.091721 C 151.216561 694.049167 151.126142 695.000339 151.127079 695.963501 C 151.124684 696.544308 151.216806 697.184928 151.410879 697.87441 L 137.933781 697.875992 C 138.489336 696.885599 138.919685 695.971089 139.210077 695.143333 C 139.507634 694.330358 139.812489 693.168225 140.135353 691.68278 L 145.547611 666.388972 C 145.743869 665.464647 145.841606 664.513551 145.841051 663.513632 C 145.839941 662.918084 145.740539 662.273711 145.546275 661.602608 Z M 190.36497 661.603583 L 189.704891 669.110695 C 189.103037 668.574997 188.444767 668.185752 187.722725 667.946558 C 187.000722 667.703688 186.112767 667.584061 185.062558 667.584041 L 174.509239 667.583297 C 173.777351 667.586626 173.268079 667.647439 172.981231 667.784115 C 172.694345 667.924466 172.44263 668.201206 172.222274 668.628997 L 171.803974 670.142848 C 171.627849 670.89093 171.538254 671.412001 171.539001 671.691396 C 171.537084 672.577329 172.139896 673.021133 173.343778 673.02277 L 182.48466 673.019682 C 184.050808 673.021455 185.188619 673.393688 185.894435 674.136344 C 186.835164 675.16086 187.308804 676.412058 187.308151 677.878836 C 187.309031 678.496439 187.171047 679.447111 186.908872 680.72733 L 184.924683 689.937274 C 184.524772 691.7932 184.133694 693.152938 183.744167 694.012736 C 183.362035 694.865259 182.790753 695.609184 182.03783 696.226209 C 181.207267 696.919616 180.379309 697.363072 179.55365 697.585983 C 179.073381 697.672834 178.454305 697.736168 177.703586 697.790765 C 176.956487 697.849075 175.993822 697.875709 174.815553 697.874341 L 154.982315 697.875223 L 155.812675 690.531653 C 156.633716 691.102743 157.350605 691.485252 157.952402 691.675391 C 158.240724 691.748272 158.64636 691.800329 159.158257 691.8388 C 159.677509 691.873672 160.361602 691.891898 161.214194 691.893515 L 171.028346 691.893835 C 171.840729 691.891353 172.375536 691.838161 172.63658 691.719594 C 172.897624 691.601028 173.123957 691.301964 173.297476 690.803833 C 173.710833 689.764155 173.914601 688.821527 173.916173 687.968676 C 173.914162 687.108435 173.336886 686.672252 172.180569 686.671115 L 163.698398 686.670105 C 159.940321 686.671005 158.062156 685.008005 158.060283 681.677391 C 158.062698 680.743674 158.264052 679.330474 158.678789 677.456323 L 160.482198 669.089992 C 160.806019 667.512653 161.195412 666.314648 161.646756 665.492262 C 162.109115 664.666316 162.786773 663.897777 163.698176 663.172135 C 164.406311 662.639191 165.204461 662.246887 166.092742 661.984197 C 166.973591 661.732458 168.014165 661.603711 169.203449 661.601519 Z M 192.436118 661.603316 L 220.374625 661.603156 L 219.826113 668.236517 C 219.08777 667.805992 218.208206 667.583521 217.187267 667.583809 L 211.036024 667.585264 L 205.577637 693.091803 C 205.370249 694.030717 205.268815 694.985449 205.269599 695.963314 C 205.270308 696.246385 205.285498 696.544313 205.333542 696.849939 C 205.374268 697.155489 205.462138 697.501971 205.579011 697.874492 L 192.101913 697.876074 C 192.661127 696.88572 193.080499 695.971094 193.381715 695.158157 C 193.675766 694.33044 193.98428 693.168346 194.307144 691.682901 L 199.454449 667.584731 L 192.981187 667.586475 C 191.905365 667.586185 190.962661 667.804189 190.142136 668.236694 Z M 242.615665 661.601874 L 247.872961 691.893539 C 248.010081 692.780934 248.134175 693.513794 248.270932 694.085037 C 248.407574 694.667306 248.548679 695.172424 248.719706 695.615361 C 249.007568 696.434496 249.438854 697.185292 250.009828 697.875064 L 235.83381 697.876644 C 236.313257 696.815604 236.553727 695.862334 236.555108 695.027862 C 236.556258 694.215445 236.450363 693.140894 236.230028 691.811485 L 235.592489 688.029369 L 221.507943 688.031912 L 218.059809 694.105401 C 217.396461 695.25641 217.064557 696.205042 217.063943 696.965999 L 217.17888 697.875218 L 209.080929 697.874573 C 210.245809 696.703108 211.518694 694.999736 212.88514 692.745926 L 229.138871 663.680485 C 228.738906 663.084416 228.39187 662.676388 228.097763 662.456401 C 227.803732 662.229062 227.330953 661.948377 226.672223 661.603241 Z M 234.623203 682.372601 L 232.293766 668.536789 L 224.611434 682.373879 Z M 270.748092 661.603754 L 278.734541 689.501547 L 283.695836 666.397658 C 283.892056 665.477008 283.997264 664.511287 284.000215 663.526109 C 283.999028 662.937912 283.906944 662.293617 283.734863 661.60069 L 290.588647 661.602949 C 290.051118 662.619265 289.613375 663.54105 289.286318 664.375772 C 289.154157 664.767729 289.017419 665.247867 288.868784 665.816107 C 288.723731 666.391737 288.559503 667.051716 288.390466 667.82193 L 281.922284 697.876275 L 269.169757 697.874451 L 261.387687 670.379508 L 256.525622 693.091093 C 256.336528 694.030198 256.246071 694.985046 256.246855 695.962911 C 256.247564 696.245982 256.270072 696.543988 256.307139 696.849498 C 256.355183 697.155124 256.428418 697.501453 256.541631 697.873936 L 249.687809 697.875352 C 250.228345 696.921563 250.66605 696.003453 250.986135 695.135573 C 251.106897 694.783933 251.27078 694.157035 251.4888 693.251319 C 251.625807 692.745451 251.759385 692.21749 251.889342 691.685816 L 257.308765 666.406788 C 257.494046 665.482347 257.59186 664.5239 257.591267 663.527657 C 257.593969 662.917444 257.494452 662.284098 257.307621 661.602045 Z M 315.783846 679.395915 C 317.446178 679.648678 318.634485 680.09129 319.352389 680.727465 C 320.28082 681.527605 320.737813 682.620554 320.737888 684.017493 C 320.738597 684.300564 320.728942 684.524708 320.712735 684.67526 C 320.711011 684.840668 320.664652 685.075454 320.588141 685.394475 L 319.52672 690.331409 C 319.218454 691.820684 318.91787 692.924044 318.61765 693.641411 C 318.317469 694.355103 317.86739 695.056189 317.263944 695.726252 C 316.527247 696.54196 315.650498 697.10254 314.619023 697.411513 C 313.591207 697.720525 312.133215 697.874289 310.237693 697.876404 L 285.508395 697.873565 C 285.773232 697.391099 286.012342 696.919391 286.240246 696.469622 C 286.457327 696.005035 286.644906 695.562194 286.810341 695.1375 C 286.923824 694.782108 287.095102 694.147935 287.313006 693.253246 C 287.446469 692.736313 287.576273 692.219341 287.713587 691.684067 L 293.122186 666.390221 C 293.318482 665.46222 293.416181 664.5148 293.415627 663.514881 C 293.418175 662.919371 293.318773 662.274999 293.12451 661.603895 L 316.558454 661.604134 C 318.717454 661.601115 320.218642 661.866887 321.061981 662.405126 C 321.9017 662.93965 322.592458 663.722585 323.141421 664.768712 C 323.743811 665.955094 324.046327 667.123617 324.045195 668.28527 C 324.046515 669.913819 323.713939 671.979994 323.051203 674.476482 C 322.758167 675.557864 322.309294 676.494236 321.708357 677.274611 C 321.103762 678.054947 320.421316 678.580809 319.661134 678.84117 C 319.128721 679.015701 318.519816 679.156341 317.8199 679.251909 C 317.119945 679.351154 316.446178 679.395531 315.783846 679.395915 Z M 302.568562 676.396835 L 308.628334 676.394417 C 308.847866 676.396727 309.052801 676.395207 309.239518 676.386143 C 309.418917 676.377002 309.59119 676.349405 309.748981 676.306951 C 309.914167 676.257223 310.057514 676.196236 310.186456 676.113041 C 310.308079 676.029769 310.441025 675.913531 310.592724 675.753376 C 310.944646 675.341674 311.252988 674.547192 311.514206 673.358867 L 312.199088 670.142087 L 312.303414 669.260908 C 312.304048 668.14704 311.636602 667.584919 310.304622 667.58561 L 304.442467 667.586431 Z M 299.249072 691.893656 L 305.54667 691.893741 C 306.381006 691.89149 306.960946 691.721136 307.275552 691.378887 C 307.593854 691.033002 307.879898 690.271371 308.148433 689.083123 L 308.979173 685.213522 C 309.07143 684.788059 309.111621 684.442923 309.110682 684.181907 C 309.109993 683.545925 308.931878 683.080856 308.55423 682.801171 C 308.18024 682.521525 307.585301 682.375572 306.780274 682.374455 L 301.280385 682.375411 Z M 355.690659 661.604103 L 362.544481 661.602686 C 362.003293 662.618963 361.565512 663.544424 361.249469 664.375586 C 361.117309 664.767544 360.98057 665.247681 360.831935 665.815921 C 360.686883 666.391551 360.522654 667.05153 360.349959 667.821706 L 355.664899 689.700666 C 355.275429 691.608168 354.920901 692.971966 354.612367 693.784826 C 354.344388 694.568704 353.923464 695.281125 353.334846 695.932964 C 352.539185 696.788489 351.534452 697.340369 350.291146 697.610353 C 349.473303 697.785556 348.886889 697.874967 348.535599 697.874947 L 331.02601 697.874542 C 330.305136 697.87431 329.412948 697.809781 328.338467 697.68084 C 327.683454 697.681301 327.08135 697.520568 326.532195 697.194966 C 325.990357 696.86944 325.504859 696.404813 325.057444 695.797217 C 324.2569 694.663892 323.850883 693.244301 323.850559 691.520183 C 323.850809 690.443072 323.99502 689.246164 324.283152 687.933133 L 328.917121 666.391841 C 329.102978 665.412264 329.200638 664.46852 329.202976 663.542154 C 329.202229 663.262759 329.179721 662.964753 329.131869 662.640749 C 329.087637 662.320458 329.007085 661.974052 328.893871 661.60157 L 342.37093 661.603664 C 341.829819 662.612589 341.392076 663.534374 341.068677 664.369134 C 340.819797 665.076014 340.526148 666.216208 340.19135 667.793431 L 335.810476 688.223511 C 335.65665 688.938742 335.581461 689.482022 335.581096 689.868014 C 335.58372 690.669443 335.775743 691.204505 336.168026 691.484344 C 336.560425 691.753155 337.316431 691.89345 338.447174 691.890642 L 347.617288 691.891538 C 348.718722 691.892097 349.493348 691.650268 349.944979 691.151387 C 350.185602 690.885559 350.371573 690.5971 350.524996 690.271536 L 351.030727 688.093222 L 355.673546 666.404978 C 355.877084 665.484405 355.974821 664.53331 355.974037 663.555445 C 355.973079 662.945193 355.884654 662.300936 355.690659 661.604103 Z M 387.090994 691.075317 L 384.842852 697.874604 L 357.295882 697.875207 C 357.557061 697.392703 357.79983 696.921033 358.027772 696.467589 C 358.241155 696.006638 358.428773 695.560122 358.597867 695.135467 C 358.707652 694.783711 358.882627 694.145902 359.104191 693.251251 C 359.233957 692.737955 359.363799 692.217308 359.497416 691.685671 L 364.909674 666.391864 C 365.10597 665.463862 365.203707 664.512767 365.206773 663.516562 C 365.205701 662.917338 365.106299 662.272965 364.908377 661.601823 L 378.389095 661.603956 C 377.844325 662.612842 377.413899 663.534705 377.09416 664.369503 C 376.958379 664.757747 376.817943 665.241522 376.673044 665.802449 C 376.524409 666.370689 376.363801 667.034383 376.183903 667.793453 L 371.032939 691.891584 L 382.75721 691.893619 C 383.031663 691.89283 383.280581 691.88442 383.496684 691.864637 C 383.716446 691.844892 383.92161 691.821317 384.094152 691.76799 C 385.09421 691.664551 386.091989 691.428746 387.090994 691.075317 Z M 387.090994 691.075317" stroke="#1a1a18" stroke-width="0.28" stroke-opacity="1" stroke-miterlimit="22.926001"/></g></g></g></g></g><g clip-path="url(#916b5b6c70)"><g clip-path="url(#ed396f674a)"><g clip-path="url(#9bb0a03264)"><g clip-path="url(#4670e0db07)"><g clip-path="url(#f01711dfd1)"><path fill="#2f2483" d="M 129.160156 317.132812 L 133.011719 309.011719 L 139.617188 308.941406 C 139.398438 309.351562 139.21875 309.730469 139.089844 310.070312 C 139.039062 310.226562 138.984375 310.421875 138.925781 310.652344 C 138.863281 310.882812 138.800781 311.148438 138.734375 311.460938 L 136.605469 321.746094 C 136.527344 322.121094 136.492188 322.507812 136.496094 322.914062 C 136.496094 323.148438 136.542969 323.410156 136.625 323.6875 L 131.050781 323.746094 C 131.28125 323.339844 131.453125 322.96875 131.570312 322.632812 C 131.6875 322.300781 131.808594 321.828125 131.9375 321.222656 L 133.828125 312.117188 L 128.296875 323.773438 L 124.910156 323.8125 L 124.148438 312.257812 L 122.152344 321.898438 C 122.074219 322.273438 122.042969 322.667969 122.046875 323.0625 C 122.046875 323.183594 122.0625 323.308594 122.074219 323.433594 C 122.097656 323.558594 122.132812 323.695312 122.179688 323.839844 L 119.351562 323.867188 C 119.566406 323.476562 119.738281 323.105469 119.867188 322.753906 C 119.917969 322.605469 119.984375 322.351562 120.070312 321.984375 C 120.125 321.777344 120.171875 321.5625 120.230469 321.347656 L 122.359375 311.070312 C 122.433594 310.695312 122.472656 310.308594 122.46875 309.902344 C 122.464844 309.65625 122.421875 309.398438 122.339844 309.121094 L 128.625 309.058594 Z M 145.625 311.304688 L 144.882812 314.910156 L 149.519531 314.863281 C 149.992188 314.855469 150.402344 314.777344 150.75 314.632812 L 150.132812 317.601562 C 149.824219 317.386719 149.332031 317.289062 148.664062 317.296875 L 144.382812 317.339844 L 143.585938 321.1875 L 148.460938 321.132812 C 148.933594 321.128906 149.375 321.015625 149.789062 320.789062 L 148.894531 323.558594 L 137.933594 323.675781 C 138.035156 323.476562 138.136719 323.285156 138.230469 323.097656 C 138.316406 322.910156 138.390625 322.730469 138.457031 322.558594 C 138.5 322.410156 138.574219 322.15625 138.65625 321.789062 C 138.714844 321.578125 138.761719 321.371094 138.816406 321.152344 L 140.941406 310.867188 C 141.023438 310.492188 141.054688 310.109375 141.050781 309.703125 C 141.050781 309.460938 141.007812 309.199219 140.921875 308.929688 L 151.953125 308.8125 L 151.695312 311.59375 C 151.449219 311.453125 151.261719 311.363281 151.117188 311.335938 C 150.96875 311.304688 150.832031 311.28125 150.695312 311.277344 C 150.554688 311.261719 150.394531 311.253906 150.207031 311.257812 Z M 150.085938 323.546875 C 150.195312 323.351562 150.292969 323.15625 150.382812 322.972656 C 150.472656 322.785156 150.550781 322.601562 150.613281 322.429688 C 150.660156 322.285156 150.726562 322.027344 150.816406 321.660156 C 150.867188 321.453125 150.917969 321.242188 150.972656 321.023438 L 153.101562 310.742188 C 153.175781 310.363281 153.214844 309.980469 153.210938 309.574219 C 153.207031 309.332031 153.164062 309.070312 153.082031 308.800781 L 162.316406 308.703125 C 163.09375 308.695312 163.621094 308.714844 163.902344 308.765625 C 164.183594 308.820312 164.460938 308.945312 164.734375 309.15625 C 165.058594 309.40625 165.324219 309.746094 165.519531 310.164062 C 165.722656 310.582031 165.824219 311.023438 165.832031 311.480469 C 165.835938 311.980469 165.796875 312.410156 165.71875 312.777344 L 164.289062 319.667969 C 164.132812 320.496094 163.972656 321.101562 163.820312 321.484375 C 163.738281 321.675781 163.644531 321.859375 163.53125 322.027344 C 163.417969 322.199219 163.273438 322.378906 163.101562 322.554688 C 162.777344 322.90625 162.433594 323.140625 162.078125 323.269531 C 161.722656 323.371094 161.140625 323.429688 160.332031 323.441406 Z M 155.742188 321.058594 L 158.097656 321.035156 C 158.640625 321.027344 158.980469 320.941406 159.125 320.773438 C 159.269531 320.601562 159.421875 320.109375 159.597656 319.292969 L 161.027344 312.402344 C 161.078125 312.148438 161.105469 311.949219 161.105469 311.8125 C 161.101562 311.570312 161.015625 311.390625 160.863281 311.253906 C 160.757812 311.183594 160.535156 311.148438 160.195312 311.152344 L 157.785156 311.175781 Z M 173.125 304.3125 L 172.4375 307.648438 L 169.539062 307.679688 L 170.234375 304.34375 Z M 173.582031 308.585938 C 173.363281 308.996094 173.1875 309.375 173.058594 309.714844 C 173.003906 309.871094 172.949219 310.066406 172.894531 310.296875 C 172.832031 310.527344 172.769531 310.792969 172.695312 311.105469 L 170.566406 321.390625 C 170.492188 321.78125 170.457031 322.167969 170.464844 322.558594 C 170.464844 322.789062 170.503906 323.054688 170.589844 323.332031 L 165.019531 323.390625 C 165.246094 322.984375 165.421875 322.613281 165.539062 322.277344 C 165.65625 321.945312 165.777344 321.472656 165.902344 320.867188 L 168.035156 310.585938 C 168.109375 310.207031 168.148438 309.824219 168.140625 309.417969 C 168.140625 309.175781 168.09375 308.914062 168.011719 308.644531 Z M 178.847656 314.554688 L 183.109375 310.09375 C 183.570312 309.585938 183.855469 309.050781 183.957031 308.476562 L 187.976562 308.433594 C 187.316406 308.914062 186.71875 309.445312 186.179688 310.03125 L 182.925781 313.46875 L 185.273438 321.460938 C 185.484375 322.195312 185.769531 322.765625 186.144531 323.167969 L 180.871094 323.226562 L 179.175781 317.390625 L 178 318.640625 L 177.449219 321.324219 C 177.371094 321.707031 177.335938 322.097656 177.339844 322.484375 C 177.34375 322.726562 177.382812 322.984375 177.46875 323.261719 L 171.898438 323.320312 C 172.128906 322.910156 172.300781 322.542969 172.417969 322.207031 C 172.535156 321.871094 172.660156 321.398438 172.78125 320.796875 L 174.910156 310.511719 C 174.992188 310.136719 175.023438 309.753906 175.019531 309.347656 C 175.019531 309.105469 174.976562 308.84375 174.890625 308.570312 L 180.460938 308.515625 C 180.347656 308.71875 180.25 308.914062 180.164062 309.101562 C 180.078125 309.285156 180.003906 309.460938 179.949219 309.628906 C 179.886719 309.796875 179.828125 309.996094 179.769531 310.226562 C 179.710938 310.453125 179.648438 310.730469 179.574219 311.035156 Z M 199.234375 308.316406 L 201.539062 320.578125 C 201.597656 320.941406 201.652344 321.238281 201.710938 321.464844 C 201.769531 321.703125 201.832031 321.90625 201.902344 322.085938 C 202.023438 322.414062 202.207031 322.722656 202.445312 323 L 196.589844 323.058594 C 196.78125 322.628906 196.875 322.238281 196.875 321.902344 C 196.871094 321.570312 196.824219 321.136719 196.726562 320.597656 L 196.445312 319.066406 L 190.625 319.128906 L 189.226562 321.605469 C 188.957031 322.074219 188.828125 322.460938 188.832031 322.773438 L 188.878906 323.140625 L 185.535156 323.175781 C 186.011719 322.695312 186.527344 322 187.085938 321.078125 L 193.675781 309.21875 C 193.507812 308.972656 193.363281 308.8125 193.242188 308.726562 C 193.121094 308.636719 192.921875 308.519531 192.648438 308.386719 Z M 196.023438 316.777344 L 195 311.175781 L 191.886719 316.824219 Z M 214.773438 320.109375 L 213.875 322.878906 L 202.492188 323 C 202.597656 322.800781 202.695312 322.609375 202.789062 322.421875 C 202.875 322.234375 202.953125 322.054688 203.015625 321.882812 C 203.0625 321.734375 203.128906 321.480469 203.21875 321.113281 C 203.269531 320.902344 203.320312 320.695312 203.375 320.476562 L 205.503906 310.191406 C 205.582031 309.816406 205.617188 309.433594 205.613281 309.027344 C 205.609375 308.785156 205.570312 308.523438 205.484375 308.25 L 211.054688 308.195312 C 210.832031 308.605469 210.664062 308.984375 210.53125 309.320312 C 210.476562 309.476562 210.417969 309.671875 210.363281 309.902344 C 210.304688 310.132812 210.238281 310.402344 210.167969 310.710938 L 208.144531 320.507812 L 212.984375 320.457031 C 213.097656 320.457031 213.203125 320.453125 213.296875 320.445312 C 213.382812 320.4375 213.464844 320.425781 213.535156 320.402344 C 213.949219 320.355469 214.363281 320.257812 214.773438 320.109375 Z M 220.28125 316.015625 L 226.84375 315.945312 L 226.292969 318.578125 L 219.734375 318.648438 Z M 237.292969 307.917969 L 243.339844 307.855469 C 243.667969 307.851562 243.9375 307.863281 244.167969 307.878906 C 244.398438 307.898438 244.601562 307.933594 244.78125 307.992188 C 245.140625 308.070312 245.445312 308.238281 245.6875 308.492188 C 246.3125 309.0625 246.628906 309.832031 246.640625 310.792969 C 246.644531 311.140625 246.59375 311.570312 246.492188 312.09375 L 244.976562 319.359375 C 244.855469 319.980469 244.710938 320.460938 244.558594 320.796875 C 244.402344 321.132812 244.171875 321.445312 243.878906 321.738281 C 243.578125 322.035156 243.214844 322.246094 242.792969 322.378906 C 242.363281 322.515625 241.808594 322.585938 241.132812 322.59375 L 234.78125 322.660156 C 234.050781 322.667969 233.546875 322.632812 233.246094 322.554688 C 232.949219 322.480469 232.675781 322.316406 232.421875 322.058594 C 231.847656 321.484375 231.558594 320.746094 231.550781 319.847656 C 231.546875 319.53125 231.617188 319.058594 231.761719 318.433594 L 233.257812 311.183594 C 233.410156 310.464844 233.589844 309.90625 233.808594 309.511719 C 234.015625 309.117188 234.304688 308.804688 234.660156 308.574219 C 235.304688 308.148438 236.183594 307.929688 237.292969 307.917969 Z M 237.917969 311.75 L 236.441406 318.882812 L 236.320312 319.578125 C 236.324219 319.816406 236.4375 319.996094 236.65625 320.113281 C 236.796875 320.175781 237.042969 320.207031 237.394531 320.203125 L 239.1875 320.183594 C 239.59375 320.179688 239.847656 320.117188 239.949219 320 C 240.050781 319.878906 240.167969 319.511719 240.304688 318.890625 L 241.792969 311.742188 L 241.871094 311.351562 L 241.929688 310.921875 C 241.925781 310.503906 241.617188 310.300781 241.003906 310.304688 L 239.269531 310.324219 C 238.828125 310.328125 238.527344 310.414062 238.359375 310.578125 C 238.1875 310.75 238.042969 311.136719 237.917969 311.75 Z M 253.507812 316.152344 L 252.285156 316.164062 L 251.378906 320.550781 C 251.300781 320.9375 251.265625 321.324219 251.269531 321.714844 C 251.273438 321.957031 251.3125 322.210938 251.398438 322.484375 L 245.828125 322.542969 C 246.050781 322.148438 246.226562 321.78125 246.355469 321.429688 C 246.398438 321.28125 246.46875 321.027344 246.554688 320.660156 C 246.609375 320.449219 246.660156 320.238281 246.710938 320.023438 L 248.839844 309.738281 C 248.917969 309.363281 248.953125 308.976562 248.949219 308.574219 C 248.949219 308.332031 248.902344 308.070312 248.820312 307.796875 L 258.105469 307.699219 C 258.820312 307.691406 259.300781 307.71875 259.542969 307.769531 C 259.6875 307.792969 259.8125 307.828125 259.929688 307.886719 C 260.050781 307.945312 260.179688 308.03125 260.320312 308.140625 C 260.636719 308.382812 260.902344 308.710938 261.113281 309.128906 C 261.324219 309.550781 261.433594 309.949219 261.4375 310.332031 C 261.4375 310.625 261.40625 310.949219 261.332031 311.289062 L 260.816406 313.800781 C 260.671875 314.441406 260.570312 314.839844 260.511719 315 C 260.453125 315.160156 260.347656 315.316406 260.203125 315.46875 C 259.828125 315.882812 259.273438 316.09375 258.546875 316.097656 L 258.226562 316.101562 L 259.058594 320.726562 C 259.125 321.097656 259.210938 321.398438 259.308594 321.632812 C 259.410156 321.855469 259.59375 322.113281 259.851562 322.398438 L 254.601562 322.453125 Z M 252.8125 313.644531 L 255.125 313.621094 C 255.515625 313.617188 255.785156 313.558594 255.929688 313.433594 C 256.074219 313.316406 256.195312 313.0625 256.28125 312.679688 L 256.585938 311.203125 C 256.601562 311.101562 256.617188 311.011719 256.625 310.925781 C 256.636719 310.847656 256.640625 310.773438 256.640625 310.707031 C 256.636719 310.328125 256.390625 310.144531 255.90625 310.148438 L 253.523438 310.175781 Z M 262.664062 307.652344 L 274.207031 307.53125 L 274.011719 310.226562 C 273.703125 310.050781 273.339844 309.964844 272.914062 309.972656 L 270.378906 309.996094 L 268.226562 320.367188 C 268.144531 320.75 268.109375 321.136719 268.113281 321.535156 C 268.117188 321.648438 268.121094 321.769531 268.144531 321.894531 C 268.164062 322.019531 268.195312 322.160156 268.25 322.308594 L 262.679688 322.367188 C 262.90625 321.960938 263.078125 321.589844 263.199219 321.257812 C 263.316406 320.921875 263.4375 320.449219 263.5625 319.84375 L 265.589844 310.046875 L 262.914062 310.074219 C 262.472656 310.082031 262.082031 310.171875 261.746094 310.355469 Z M 278.277344 307.488281 L 284.324219 307.425781 C 284.652344 307.421875 284.921875 307.433594 285.152344 307.449219 C 285.382812 307.46875 285.585938 307.503906 285.765625 307.5625 C 286.125 307.640625 286.429688 307.808594 286.671875 308.0625 C 287.296875 308.636719 287.613281 309.402344 287.625 310.363281 C 287.628906 310.710938 287.578125 311.140625 287.476562 311.664062 L 285.960938 318.929688 C 285.835938 319.550781 285.695312 320.03125 285.542969 320.367188 C 285.386719 320.703125 285.15625 321.019531 284.859375 321.308594 C 284.5625 321.605469 284.199219 321.816406 283.773438 321.949219 C 283.347656 322.085938 282.792969 322.15625 282.117188 322.164062 L 275.765625 322.230469 C 275.035156 322.238281 274.523438 322.203125 274.230469 322.125 C 273.933594 322.050781 273.65625 321.886719 273.402344 321.628906 C 272.832031 321.054688 272.539062 320.316406 272.53125 319.417969 C 272.527344 319.101562 272.601562 318.628906 272.746094 318.003906 L 274.242188 310.753906 C 274.394531 310.035156 274.574219 309.476562 274.792969 309.082031 C 275 308.6875 275.289062 308.375 275.640625 308.144531 C 276.289062 307.71875 277.167969 307.5 278.277344 307.488281 Z M 278.902344 311.320312 L 277.425781 318.453125 L 277.304688 319.152344 C 277.308594 319.386719 277.421875 319.566406 277.640625 319.6875 C 277.78125 319.746094 278.027344 319.777344 278.375 319.773438 L 280.171875 319.753906 C 280.578125 319.75 280.832031 319.691406 280.933594 319.570312 C 281.035156 319.449219 281.152344 319.082031 281.285156 318.460938 L 282.773438 311.3125 L 282.855469 310.921875 L 282.914062 310.492188 C 282.910156 310.074219 282.601562 309.871094 281.988281 309.875 L 280.25 309.894531 C 279.808594 309.898438 279.511719 309.984375 279.34375 310.148438 C 279.171875 310.320312 279.023438 310.707031 278.902344 311.320312 Z M 293.035156 316.84375 L 292.363281 320.109375 C 292.285156 320.503906 292.25 320.894531 292.253906 321.28125 C 292.257812 321.527344 292.296875 321.78125 292.382812 322.058594 L 286.8125 322.117188 C 287.039062 321.707031 287.210938 321.339844 287.332031 321.003906 C 287.449219 320.667969 287.566406 320.195312 287.695312 319.59375 L 289.824219 309.308594 C 289.898438 308.933594 289.9375 308.546875 289.933594 308.144531 C 289.929688 307.902344 289.886719 307.640625 289.804688 307.367188 L 299.570312 307.265625 C 300.199219 307.261719 300.667969 307.300781 300.980469 307.390625 C 301.285156 307.472656 301.566406 307.636719 301.8125 307.878906 C 302.351562 308.390625 302.621094 309.066406 302.628906 309.902344 C 302.632812 310.125 302.585938 310.460938 302.492188 310.917969 L 301.945312 313.53125 C 301.726562 314.699219 301.328125 315.558594 300.746094 316.105469 C 300.449219 316.367188 300.132812 316.550781 299.777344 316.652344 C 299.625 316.6875 299.40625 316.71875 299.125 316.746094 C 298.835938 316.769531 298.496094 316.789062 298.097656 316.792969 Z M 293.546875 314.410156 L 295.777344 314.386719 C 296.304688 314.378906 296.660156 314.292969 296.84375 314.125 C 297.019531 313.960938 297.171875 313.589844 297.292969 313.007812 L 297.734375 310.886719 C 297.765625 310.726562 297.785156 310.574219 297.785156 310.449219 C 297.78125 310.164062 297.707031 309.972656 297.570312 309.875 C 297.4375 309.773438 297.1875 309.71875 296.8125 309.722656 L 294.507812 309.746094 Z M 309.003906 309.59375 L 308.257812 313.199219 L 312.898438 313.152344 C 313.363281 313.144531 313.777344 313.066406 314.125 312.921875 L 313.511719 315.890625 C 313.199219 315.675781 312.710938 315.578125 312.042969 315.585938 L 307.761719 315.628906 L 306.960938 319.476562 L 311.835938 319.421875 C 312.3125 319.417969 312.753906 319.304688 313.164062 319.078125 L 312.269531 321.847656 L 301.304688 321.964844 C 301.414062 321.765625 301.511719 321.574219 301.601562 321.386719 C 301.691406 321.199219 301.769531 321.019531 301.832031 320.847656 C 301.878906 320.699219 301.945312 320.445312 302.035156 320.078125 C 302.085938 319.867188 302.136719 319.660156 302.191406 319.441406 L 304.320312 309.15625 C 304.398438 308.78125 304.433594 308.398438 304.429688 307.992188 C 304.425781 307.75 304.386719 307.488281 304.300781 307.21875 L 315.328125 307.101562 L 315.070312 309.882812 C 314.828125 309.742188 314.640625 309.652344 314.492188 309.625 C 314.347656 309.59375 314.203125 309.570312 314.070312 309.566406 C 313.933594 309.550781 313.769531 309.542969 313.582031 309.546875 Z M 313.464844 321.835938 C 313.570312 321.640625 313.667969 321.445312 313.757812 321.261719 C 313.847656 321.074219 313.921875 320.890625 313.992188 320.71875 C 314.035156 320.574219 314.101562 320.316406 314.191406 319.949219 C 314.242188 319.742188 314.296875 319.53125 314.347656 319.3125 L 316.476562 309.03125 C 316.550781 308.652344 316.589844 308.269531 316.585938 307.863281 C 316.582031 307.621094 316.539062 307.359375 316.457031 307.089844 L 325.691406 306.992188 C 326.46875 306.984375 326.996094 307.003906 327.273438 307.054688 C 327.554688 307.109375 327.835938 307.234375 328.105469 307.445312 C 328.433594 307.695312 328.695312 308.035156 328.898438 308.453125 C 329.097656 308.871094 329.203125 309.3125 329.207031 309.769531 C 329.210938 310.269531 329.175781 310.699219 329.089844 311.066406 L 327.664062 317.957031 C 327.507812 318.785156 327.351562 319.390625 327.191406 319.773438 C 327.113281 319.964844 327.019531 320.148438 326.90625 320.316406 C 326.792969 320.488281 326.648438 320.667969 326.472656 320.84375 C 326.148438 321.195312 325.8125 321.429688 325.453125 321.558594 C 325.097656 321.660156 324.515625 321.71875 323.710938 321.730469 Z M 319.113281 319.347656 L 321.472656 319.324219 C 322.011719 319.316406 322.355469 319.230469 322.5 319.0625 C 322.640625 318.890625 322.796875 318.398438 322.972656 317.582031 L 324.398438 310.691406 C 324.457031 310.4375 324.480469 310.238281 324.476562 310.101562 C 324.476562 309.859375 324.394531 309.679688 324.238281 309.542969 C 324.132812 309.472656 323.910156 309.4375 323.574219 309.441406 L 321.160156 309.464844 Z M 336.503906 302.601562 L 335.8125 305.9375 L 332.914062 305.96875 L 333.605469 302.632812 Z M 336.957031 306.875 C 336.738281 307.285156 336.566406 307.664062 336.433594 308.003906 C 336.382812 308.160156 336.324219 308.355469 336.265625 308.585938 C 336.207031 308.816406 336.144531 309.082031 336.074219 309.394531 L 333.945312 319.679688 C 333.867188 320.070312 333.835938 320.457031 333.839844 320.847656 C 333.839844 321.078125 333.882812 321.34375 333.964844 321.621094 L 328.398438 321.679688 C 328.621094 321.273438 328.792969 320.902344 328.910156 320.566406 C 329.027344 320.234375 329.152344 319.761719 329.28125 319.15625 L 331.410156 308.875 C 331.484375 308.496094 331.523438 308.113281 331.519531 307.707031 C 331.515625 307.464844 331.472656 307.203125 331.390625 306.933594 Z M 336.957031 306.875" fill-opacity="1" fill-rule="nonzero"/></g></g></g></g></g><g clip-path="url(#7af5c40698)"><g clip-path="url(#72ba07444c)"><g clip-path="url(#aea9832c24)"><g clip-path="url(#177f6f31ed)"><path fill="#ffffff" d="M 180.824219 200.007812 C 180.839844 201.410156 180.921875 202.8125 181.074219 204.207031 C 181.226562 205.605469 181.445312 206.988281 181.734375 208.363281 C 182.023438 209.738281 182.375 211.09375 182.800781 212.433594 C 183.222656 213.773438 183.707031 215.09375 184.261719 216.378906 C 184.808594 217.671875 185.421875 218.9375 186.097656 220.167969 C 186.773438 221.402344 187.507812 222.597656 188.296875 223.757812 C 189.089844 224.914062 189.9375 226.03125 190.84375 227.105469 C 191.742188 228.1875 192.695312 229.214844 193.699219 230.195312 C 194.703125 231.179688 195.753906 232.109375 196.847656 232.992188 C 197.941406 233.871094 199.078125 234.695312 200.253906 235.460938 C 201.425781 236.230469 202.640625 236.941406 203.882812 237.585938 C 205.128906 238.238281 206.40625 238.824219 207.707031 239.34375 C 209.011719 239.871094 210.335938 240.328125 211.683594 240.722656 C 213.03125 241.117188 214.394531 241.441406 215.777344 241.703125 C 217.15625 241.964844 218.546875 242.152344 219.945312 242.277344 C 221.34375 242.398438 222.746094 242.457031 224.152344 242.441406 C 225.554688 242.425781 226.957031 242.339844 228.351562 242.1875 C 229.746094 242.035156 231.132812 241.816406 232.507812 241.527344 C 233.882812 241.238281 235.238281 240.886719 236.578125 240.460938 C 237.917969 240.039062 239.230469 239.554688 240.523438 239 C 241.816406 238.453125 243.078125 237.839844 244.3125 237.164062 C 245.539062 236.492188 246.738281 235.753906 247.894531 234.960938 C 249.054688 234.171875 250.171875 233.324219 251.25 232.421875 C 252.324219 231.519531 253.355469 230.5625 254.335938 229.558594 C 255.320312 228.5625 256.253906 227.511719 257.128906 226.414062 C 258.011719 225.316406 258.835938 224.183594 259.601562 223.007812 C 260.371094 221.832031 261.082031 220.625 261.726562 219.375 C 262.378906 218.128906 262.964844 216.855469 263.484375 215.550781 C 264.011719 214.25 264.46875 212.921875 264.863281 211.574219 C 265.257812 210.226562 265.582031 208.863281 265.84375 207.480469 C 266.105469 206.101562 266.292969 204.714844 266.417969 203.3125 C 266.539062 201.914062 266.59375 200.511719 266.578125 199.109375 C 266.5625 197.703125 266.480469 196.304688 266.328125 194.90625 C 266.175781 193.511719 265.957031 192.128906 265.667969 190.753906 C 265.378906 189.378906 265.027344 188.019531 264.601562 186.679688 C 264.179688 185.339844 263.695312 184.023438 263.140625 182.730469 C 262.59375 181.441406 261.980469 180.179688 261.304688 178.945312 C 260.632812 177.714844 259.898438 176.519531 259.105469 175.359375 C 258.3125 174.199219 257.464844 173.082031 256.5625 172.003906 C 255.660156 170.929688 254.707031 169.898438 253.703125 168.914062 C 252.699219 167.933594 251.648438 167.003906 250.554688 166.121094 C 249.460938 165.246094 248.324219 164.421875 247.148438 163.652344 C 245.976562 162.886719 244.761719 162.175781 243.519531 161.523438 C 242.273438 160.878906 241 160.289062 239.695312 159.765625 C 238.390625 159.246094 237.066406 158.785156 235.71875 158.390625 C 234.371094 157.996094 233.007812 157.667969 231.625 157.414062 C 230.246094 157.152344 228.855469 156.960938 227.460938 156.839844 C 226.058594 156.714844 224.65625 156.660156 223.253906 156.671875 C 221.847656 156.6875 220.445312 156.773438 219.054688 156.925781 C 217.65625 157.078125 216.269531 157.296875 214.894531 157.585938 C 213.519531 157.875 212.164062 158.230469 210.824219 158.652344 C 209.484375 159.070312 208.171875 159.5625 206.878906 160.109375 C 205.585938 160.660156 204.324219 161.277344 203.089844 161.949219 C 201.863281 162.625 200.664062 163.359375 199.507812 164.152344 C 198.347656 164.945312 197.230469 165.792969 196.152344 166.691406 C 195.078125 167.597656 194.046875 168.546875 193.066406 169.550781 C 192.082031 170.554688 191.148438 171.605469 190.273438 172.699219 C 189.390625 173.792969 188.566406 174.929688 187.800781 176.105469 C 187.03125 177.28125 186.320312 178.492188 185.675781 179.738281 C 185.023438 180.984375 184.4375 182.261719 183.917969 183.558594 C 183.390625 184.863281 182.933594 186.191406 182.539062 187.539062 C 182.144531 188.890625 181.820312 190.253906 181.558594 191.632812 C 181.296875 193.015625 181.109375 194.402344 180.984375 195.800781 C 180.863281 197.199219 180.808594 198.601562 180.824219 200.007812 Z M 180.824219 200.007812" fill-opacity="1" fill-rule="nonzero"/></g></g></g></g><g clip-path="url(#d7af95ec32)"><g clip-path="url(#858fee2913)"><g clip-path="url(#7d7510235e)"><g clip-path="url(#e57b54b47c)"><g clip-path="url(#9f226ae64c)"><path stroke-linecap="butt" transform="matrix(-1.071284, 0.0112189, 0.0112203, 1.071417, 489.171081, -599.797295)" fill="none" stroke-linejoin="round" d="M 295.615387 743.397409 C 295.61451 744.706287 295.551653 746.015813 295.423093 747.318736 C 295.29457 748.625304 295.103915 749.917939 294.847556 751.203971 C 294.591198 752.490002 294.272667 753.758455 293.892003 755.012976 C 293.51134 756.267496 293.07215 757.5044 292.56699 758.709181 C 292.069199 759.921178 291.509159 761.108304 290.890441 762.263233 C 290.271761 763.421807 289.598011 764.544499 288.869227 765.634954 C 288.144052 766.721726 287.363806 767.772615 286.528451 768.783977 C 285.700464 769.802554 284.8209 770.770629 283.89348 771.695454 C 282.966099 772.623924 281.994432 773.501816 280.982202 774.336383 C 279.969933 775.167303 278.916987 775.943962 277.827085 776.673611 C 276.740829 777.403223 275.613857 778.074926 274.46079 778.692215 C 273.304116 779.313187 272.117625 779.872492 270.90861 780.370053 C 269.696025 780.874942 268.464524 781.314405 267.210535 781.695768 C 265.956547 782.077132 264.687288 782.39303 263.399188 782.650791 C 262.114735 782.908514 260.818618 783.097088 259.514598 783.22741 C 258.21054 783.354087 256.902225 783.422475 255.589539 783.421637 C 254.280499 783.42076 252.970771 783.354265 251.667687 783.225721 C 250.364602 783.097176 249.06816 782.906583 247.781968 782.650256 C 246.495777 782.393929 245.227204 782.079084 243.97249 781.694822 C 242.717814 781.314205 241.488048 780.874994 240.275825 780.369973 C 239.063678 779.872244 237.880049 779.312236 236.721331 778.693633 C 235.569905 778.074953 234.443427 777.401325 233.356482 776.672594 C 232.26593 775.947547 231.214909 775.167398 230.199814 774.33583 C 229.188364 773.504225 228.216485 772.621163 227.291545 771.693858 C 226.363036 770.773883 225.481388 769.802375 224.653972 768.786549 C 223.819264 767.770799 223.038901 766.721667 222.312806 765.631863 C 221.583066 764.542096 220.907672 763.418948 220.293914 762.262341 C 219.672864 761.105811 219.113528 759.923113 218.615867 758.710603 C 218.110953 757.501814 217.671398 756.26682 217.289987 755.012988 C 216.908576 753.759155 216.592639 752.490054 216.334845 751.202115 C 216.07709 749.91782 215.888531 748.62551 215.758154 747.318007 C 215.631462 746.014111 215.566712 744.705921 215.567588 743.397043 C 215.568427 742.084521 215.631322 740.77864 215.759844 739.472071 C 215.888405 738.169149 216.079022 736.872868 216.335419 735.590482 C 216.591778 734.30445 216.906624 733.03239 217.290934 731.777831 C 217.671597 730.523311 218.110825 729.290053 218.612263 728.078019 C 219.113738 726.86963 219.673816 725.686148 220.292496 724.527574 C 220.907568 723.372684 221.581319 722.249992 222.310102 721.159537 C 223.038885 720.069081 223.819093 719.014546 224.650802 718.003222 C 225.482511 716.991899 226.362037 716.020179 227.289418 715.091708 C 228.216838 714.166883 229.188505 713.288991 230.200735 712.454425 C 231.213042 711.627149 232.26595 710.846845 233.355852 710.117196 C 234.442146 709.39123 235.56908 708.715881 236.722108 708.094947 C 237.878859 707.481265 239.061666 706.918353 240.274289 706.417109 C 241.48695 705.91951 242.718375 705.472757 243.972401 705.095039 C 245.22639 704.713675 246.495611 704.394132 247.783787 704.143661 C 249.068241 703.885938 250.364319 703.693719 251.664731 703.56708 C 252.972397 703.43672 254.28075 703.371978 255.589752 703.369209 C 256.902438 703.370047 258.212166 703.436542 259.511604 703.565125 C 260.818335 703.693631 262.114777 703.884224 263.400968 704.140551 C 264.68716 704.396878 265.955771 704.715369 267.210447 705.095985 C 268.465085 705.472956 269.694927 705.919458 270.907074 706.417188 C 272.119259 706.918563 273.302926 707.482217 274.461606 708.097174 C 275.613032 708.715854 276.73951 709.389482 277.826455 710.118213 C 278.917045 710.846906 279.968066 711.627055 280.983123 712.454977 C 281.994611 713.290228 282.966413 714.165999 283.891354 715.093303 C 284.81994 716.020569 285.701587 716.992077 286.528965 718.004258 C 287.363635 719.016362 288.144036 720.06914 288.87013 721.158944 C 289.599871 722.248711 290.275265 723.371859 290.889023 724.528466 C 291.510073 725.684996 292.069447 726.871339 292.567031 728.076559 C 293.071984 729.288993 293.511539 730.523987 293.89295 731.777819 C 294.274361 733.031652 294.590337 734.304398 294.848092 735.588693 C 295.105847 736.872987 295.294444 738.168942 295.424782 739.4728 C 295.551475 740.776696 295.616225 742.084886 295.615387 743.397409 Z M 295.615387 743.397409" stroke="#ffffff" stroke-width="4.25" stroke-opacity="1" stroke-miterlimit="22.926001"/></g></g></g></g></g><g clip-path="url(#eed6abd3e7)"><g clip-path="url(#f3691aa029)"><g clip-path="url(#2b309adc27)"><g clip-path="url(#08280a5681)"><path fill="#ffffff" d="M 180.78125 199.777344 C 180.796875 201.175781 180.875 202.574219 181.027344 203.960938 C 181.179688 205.355469 181.402344 206.734375 181.6875 208.101562 C 181.976562 209.472656 182.328125 210.820312 182.746094 212.15625 C 183.164062 213.488281 183.652344 214.796875 184.199219 216.085938 C 184.746094 217.375 185.359375 218.628906 186.027344 219.851562 C 186.703125 221.082031 187.433594 222.269531 188.222656 223.421875 C 189.011719 224.578125 189.855469 225.695312 190.753906 226.765625 C 191.652344 227.835938 192.601562 228.863281 193.601562 229.839844 C 194.601562 230.816406 195.644531 231.746094 196.734375 232.621094 C 197.824219 233.496094 198.953125 234.320312 200.125 235.082031 C 201.292969 235.847656 202.5 236.554688 203.742188 237.199219 C 204.980469 237.847656 206.25 238.429688 207.546875 238.949219 C 208.84375 239.472656 210.164062 239.929688 211.507812 240.320312 C 212.847656 240.710938 214.207031 241.039062 215.578125 241.296875 C 216.957031 241.554688 218.339844 241.746094 219.730469 241.867188 C 221.125 241.988281 222.519531 242.046875 223.917969 242.03125 C 225.316406 242.015625 226.710938 241.929688 228.101562 241.777344 C 229.492188 241.628906 230.871094 241.40625 232.242188 241.121094 C 233.605469 240.835938 234.960938 240.480469 236.292969 240.058594 C 237.625 239.640625 238.9375 239.15625 240.222656 238.609375 C 241.507812 238.058594 242.765625 237.449219 243.992188 236.777344 C 245.21875 236.105469 246.410156 235.375 247.5625 234.585938 C 248.71875 233.796875 249.832031 232.953125 250.902344 232.054688 C 251.976562 231.15625 252.996094 230.203125 253.976562 229.210938 C 254.953125 228.210938 255.882812 227.164062 256.757812 226.074219 C 257.632812 224.984375 258.453125 223.851562 259.21875 222.679688 C 259.984375 221.511719 260.6875 220.304688 261.335938 219.0625 C 261.980469 217.824219 262.566406 216.558594 263.085938 215.257812 C 263.605469 213.960938 264.066406 212.640625 264.457031 211.300781 C 264.847656 209.957031 265.175781 208.597656 265.433594 207.222656 C 265.6875 205.851562 265.878906 204.46875 266 203.070312 C 266.125 201.679688 266.179688 200.28125 266.167969 198.882812 C 266.152344 197.484375 266.066406 196.089844 265.914062 194.703125 C 265.761719 193.3125 265.542969 191.929688 265.257812 190.566406 C 264.972656 189.195312 264.617188 187.84375 264.195312 186.511719 C 263.777344 185.179688 263.292969 183.863281 262.746094 182.582031 C 262.195312 181.292969 261.585938 180.039062 260.914062 178.808594 C 260.242188 177.585938 259.511719 176.394531 258.722656 175.238281 C 257.929688 174.085938 257.089844 172.972656 256.191406 171.898438 C 255.292969 170.828125 254.34375 169.800781 253.34375 168.824219 C 252.34375 167.84375 251.300781 166.921875 250.210938 166.042969 C 249.121094 165.167969 247.992188 164.347656 246.816406 163.582031 C 245.648438 162.816406 244.445312 162.113281 243.203125 161.464844 C 241.964844 160.820312 240.691406 160.234375 239.398438 159.714844 C 238.097656 159.195312 236.777344 158.734375 235.4375 158.34375 C 234.09375 157.953125 232.734375 157.625 231.363281 157.371094 C 229.988281 157.109375 228.605469 156.917969 227.210938 156.800781 C 225.816406 156.675781 224.421875 156.621094 223.023438 156.632812 C 221.625 156.648438 220.234375 156.734375 218.839844 156.886719 C 217.453125 157.035156 216.074219 157.253906 214.703125 157.542969 C 213.335938 157.828125 211.984375 158.1875 210.652344 158.605469 C 209.316406 159.023438 208.007812 159.507812 206.71875 160.058594 C 205.433594 160.605469 204.175781 161.214844 202.953125 161.886719 C 201.722656 162.558594 200.535156 163.289062 199.382812 164.078125 C 198.226562 164.867188 197.117188 165.714844 196.042969 166.609375 C 194.972656 167.511719 193.945312 168.457031 192.96875 169.457031 C 191.988281 170.457031 191.0625 171.5 190.1875 172.589844 C 189.308594 173.679688 188.492188 174.8125 187.726562 175.980469 C 186.960938 177.152344 186.253906 178.359375 185.609375 179.597656 C 184.964844 180.839844 184.378906 182.105469 183.855469 183.40625 C 183.335938 184.703125 182.878906 186.027344 182.488281 187.367188 C 182.097656 188.710938 181.773438 190.066406 181.511719 191.441406 C 181.253906 192.8125 181.066406 194.199219 180.941406 195.59375 C 180.816406 196.984375 180.765625 198.378906 180.78125 199.777344 Z M 180.78125 199.777344" fill-opacity="1" fill-rule="nonzero"/></g></g></g></g><g clip-path="url(#8b8ad7f5cf)"><g clip-path="url(#d41023a160)"><g clip-path="url(#e45d3233be)"><g clip-path="url(#d49c36d1ad)"><g clip-path="url(#cc4c9f552a)"><path stroke-linecap="butt" transform="matrix(-1.066652, 0.0111704, 0.0111718, 1.066785, 487.793612, -596.56607)" fill="none" stroke-linejoin="miter" d="M 295.614059 743.393884 C 295.61314 744.704784 295.553633 746.016297 295.424438 747.317554 C 295.29532 748.626135 295.100136 749.92076 294.846249 751.205015 C 294.588739 752.492969 294.272411 753.759569 293.893717 755.015837 C 293.514986 756.268444 293.070112 757.499773 292.570121 758.713371 C 292.070129 759.926968 291.507543 761.108266 290.893385 762.26081 C 290.27198 763.420754 289.598889 764.54096 288.870527 765.628789 C 288.142202 766.72028 287.36223 767.775694 286.530533 768.78771 C 285.698836 769.799725 284.819114 770.771965 283.891291 771.697106 C 282.963468 772.622248 281.994905 773.503875 280.981865 774.334704 C 279.968824 775.165534 278.918667 775.949149 277.827618 776.674606 C 276.740268 777.403686 275.615726 778.078229 274.457614 778.694537 C 273.303203 779.314468 272.118845 779.872463 270.908242 780.372146 C 269.697677 780.87549 268.46449 781.316822 267.20868 781.696142 C 265.956532 782.075424 264.685461 782.396317 263.402715 782.651421 C 262.112646 782.906602 260.818263 783.099579 259.515866 783.226729 C 258.209807 783.353918 256.903135 783.422525 255.592072 783.421607 C 254.281009 783.420688 252.972918 783.353828 251.667837 783.224687 C 250.362794 783.099207 249.068008 782.904048 247.779932 782.650231 C 246.499179 782.396338 245.225059 782.076464 243.968597 781.694157 C 242.719496 781.315434 241.484391 780.874315 240.274304 780.374348 C 239.064178 779.870719 237.87911 779.311902 236.722723 778.694197 C 235.566335 778.076493 234.442328 777.403524 233.354364 776.675252 C 232.262737 775.947018 231.210853 775.167104 230.198712 774.335511 C 229.182909 773.503955 228.217833 772.620605 227.288992 771.700258 C 226.363735 770.77255 225.48196 769.800447 224.651028 768.787532 C 223.820095 767.774618 223.040005 766.720892 222.310796 765.630016 C 221.581626 764.542802 220.910661 763.418361 220.290614 762.260432 C 219.670607 761.106164 219.11258 759.925615 218.612797 758.711501 C 218.113052 757.501048 217.668003 756.268052 217.288674 755.01606 C 216.909307 753.760406 216.588374 752.489494 216.3332 751.203246 C 216.081726 749.920621 215.888725 748.626399 215.761482 747.316841 C 215.630654 746.014645 215.565661 744.704435 215.562918 743.393574 C 215.563837 742.082674 215.630706 740.774746 215.759901 739.473488 C 215.889058 738.168569 216.080541 736.870321 216.334467 735.589727 C 216.588315 734.301811 216.908267 733.031512 217.29066 731.778867 C 217.669392 730.52626 218.110527 729.287646 218.610595 728.081371 C 219.114248 726.867735 219.673173 725.686476 220.290916 724.526571 C 220.908735 723.373988 221.581788 722.250121 222.310112 721.15863 C 223.042137 720.070763 223.818486 719.019048 224.650144 718.003371 C 225.481842 716.991355 226.361563 716.019116 227.289387 715.093974 C 228.217171 714.165172 229.185811 713.290867 230.198813 712.456376 C 231.211853 711.625547 232.262048 710.845593 233.356721 710.116436 C 234.444071 709.387357 235.56499 708.716513 236.723063 708.096544 C 237.877513 707.480274 239.065494 706.918579 240.272435 706.418935 C 241.4867 705.919213 242.71985 705.47422 243.971998 705.094938 C 245.227808 704.715618 246.498878 704.394726 247.781662 704.143283 C 249.068032 703.884479 250.362415 703.691502 251.668512 703.567975 C 252.974532 703.437125 254.281243 703.372178 255.592267 703.369436 C 256.90333 703.370354 258.207759 703.437253 259.516502 703.566355 C 260.817883 703.691873 262.112631 703.883371 263.400746 704.140849 C 264.68516 704.394705 265.955656 704.718278 267.208419 705.096963 C 268.464843 705.475609 269.696287 705.916766 270.910074 706.420356 C 272.120161 706.920324 273.305229 707.479141 274.457955 708.096883 C 275.618004 708.71455 276.738349 709.387557 277.826314 710.115829 C 278.91794 710.844063 279.966201 711.627676 280.981966 712.45557 C 281.994145 713.290825 282.966468 714.166776 283.891724 715.094484 C 284.820642 716.022153 285.698717 716.990634 286.52965 718.003549 C 287.364244 719.016425 288.140672 720.070189 288.869843 721.157403 C 289.599051 722.248279 290.273679 723.372681 290.890025 724.526988 C 291.506409 725.684955 292.068097 726.865466 292.571542 728.079542 C 293.071288 729.289994 293.512713 730.52669 293.892042 731.778682 C 294.271409 733.034336 294.588641 734.301625 294.847477 735.587835 C 295.102613 736.870421 295.291991 738.168343 295.422857 739.474201 C 295.550023 740.776436 295.614978 742.082984 295.614059 743.393884 Z M 295.614059 743.393884" stroke="#2f2483" stroke-width="5.67" stroke-opacity="1" stroke-miterlimit="22.926001"/></g></g></g></g></g><g clip-path="url(#08ae8a6a41)"><g clip-path="url(#019db23657)"><g clip-path="url(#d8acfefd5b)"><g clip-path="url(#0841c9fc7d)"><g clip-path="url(#01e9a53ef1)"><path fill="#e3000f" d="M 222.613281 169.53125 C 222.644531 172.617188 220.171875 175.144531 217.085938 175.175781 C 214 175.210938 211.472656 172.734375 211.441406 169.648438 C 211.40625 166.5625 213.882812 164.035156 216.96875 164.003906 C 220.054688 163.972656 222.582031 166.445312 222.613281 169.53125" fill-opacity="1" fill-rule="nonzero"/></g></g></g></g></g><g clip-path="url(#6ade9c01dd)"><g clip-path="url(#30462c797f)"><g clip-path="url(#1fe067b869)"><g clip-path="url(#7807632a79)"><path stroke-linecap="butt" transform="matrix(-0.0112921, -1.078273, -1.071538, 0.0112215, 1034.478027, 447.378713)" fill="none" stroke-linejoin="miter" d="M 245.211427 775.114415 L 258.702331 775.114418 L 258.70156 763.900988 L 248.163167 763.90268 L 248.162742 740.538925" stroke="#e3000f" stroke-width="4.25" stroke-opacity="1" stroke-miterlimit="4"/></g></g></g></g><g clip-path="url(#20fab04a89)"><g clip-path="url(#d89e753929)"><g clip-path="url(#775fdeef90)"><g clip-path="url(#60188664b4)"><g clip-path="url(#abe3b8db6d)"><path stroke-linecap="butt" transform="matrix(0.530643, 0.933801, 0.924087, -0.535952, -578.453463, 351.072344)" fill="none" stroke-linejoin="miter" d="M 261.187982 729.982284 C 261.187982 729.982284 264.910355 740.826336 283.633033 729.986357" stroke="#e3000f" stroke-width="4.25" stroke-opacity="1" stroke-miterlimit="4"/></g></g></g></g></g><g clip-path="url(#cb4367e657)"><g clip-path="url(#27724b69d3)"><g clip-path="url(#ac426640ab)"><g clip-path="url(#8b9dfd7422)"><path stroke-linecap="butt" transform="matrix(-1.062891, 0.011131, 0.0113357, 1.082437, 519.595358, -562.182048)" fill="none" stroke-linejoin="miter" d="M 265.988024 721.926647 L 275.521271 721.926051" stroke="#e3000f" stroke-width="4.25" stroke-opacity="1" stroke-miterlimit="4"/></g></g></g></g><g clip-path="url(#fdbe326c73)"><g clip-path="url(#cb6e7dde73)"><g clip-path="url(#33dc05cefe)"><g clip-path="url(#2dcfbfbd84)"><g clip-path="url(#9d6d0f0b9a)"><path stroke-linecap="butt" transform="matrix(-0.0112686, -1.076029, -1.075895, 0.0112672, 1013.337039, 470.07108)" fill="none" stroke-linejoin="miter" d="M 251.138052 721.172091 C 243.205959 721.171663 236.778759 727.599962 236.778293 735.529411 C 236.777789 743.45523 243.205327 749.886859 251.13742 749.887287 C 259.065883 749.887753 265.496675 743.455786 265.497141 735.526337 C 265.494015 727.600556 259.062885 721.172595 251.138052 721.172091" stroke="#2f2483" stroke-width="3.69" stroke-opacity="1" stroke-miterlimit="4"/></g></g></g></g></g><g clip-path="url(#dce970702e)"><g clip-path="url(#85c98dc13c)"><g clip-path="url(#2f7e1f5f30)"><g clip-path="url(#02ffd78f4d)"><g clip-path="url(#0b2bd366ba)"><path fill="#e3000f" d="M 214.964844 215.984375 L 218.46875 202.859375 L 222.84375 203.378906 L 219.347656 216.5 Z M 220.105469 200.21875 C 220.136719 199.84375 220.292969 199.535156 220.566406 199.285156 C 220.839844 199.035156 221.144531 198.933594 221.476562 198.972656 C 221.8125 199.015625 222.089844 199.183594 222.300781 199.484375 C 222.515625 199.792969 222.601562 200.128906 222.566406 200.503906 C 222.527344 200.902344 222.382812 201.21875 222.121094 201.453125 C 221.863281 201.6875 221.554688 201.785156 221.207031 201.742188 C 220.867188 201.703125 220.59375 201.535156 220.375 201.238281 C 220.15625 200.933594 220.066406 200.597656 220.105469 200.21875" fill-opacity="1" fill-rule="nonzero"/></g></g></g></g></g><g clip-path="url(#1aeef42a7a)"><g clip-path="url(#a8ef57b02f)"><g clip-path="url(#e70a249c93)"><g clip-path="url(#27303fb144)"><g clip-path="url(#717e0eab10)"><path fill="#2f2483" d="M 218.230469 237.195312 L 214.46875 237.234375 L 214.460938 236.574219 L 216.585938 234.273438 C 217.007812 233.816406 217.285156 233.460938 217.417969 233.195312 C 217.554688 232.933594 217.617188 232.664062 217.617188 232.382812 C 217.609375 231.957031 217.484375 231.605469 217.234375 231.316406 C 216.984375 231.03125 216.664062 230.894531 216.285156 230.898438 C 215.886719 230.902344 215.578125 231.050781 215.34375 231.347656 C 215.105469 231.644531 214.996094 232.035156 215 232.523438 C 215 232.546875 215 232.582031 215.003906 232.617188 C 215.007812 232.660156 215.011719 232.691406 215.011719 232.714844 L 214.421875 232.722656 L 214.421875 232.617188 C 214.414062 231.933594 214.589844 231.375 214.945312 230.945312 C 215.300781 230.511719 215.761719 230.289062 216.324219 230.285156 C 216.835938 230.277344 217.277344 230.484375 217.640625 230.890625 C 218.003906 231.304688 218.191406 231.8125 218.195312 232.421875 C 218.199219 232.773438 218.128906 233.113281 217.980469 233.433594 C 217.835938 233.757812 217.59375 234.089844 217.269531 234.4375 L 215.25 236.566406 L 218.222656 236.535156 Z M 219.652344 234.9375 C 219.660156 235.5 219.796875 235.933594 220.054688 236.246094 C 220.316406 236.558594 220.679688 236.707031 221.136719 236.703125 C 221.59375 236.699219 221.945312 236.542969 222.199219 236.230469 C 222.453125 235.914062 222.578125 235.484375 222.570312 234.921875 L 222.546875 232.585938 C 222.542969 232.035156 222.40625 231.605469 222.144531 231.292969 C 221.882812 230.984375 221.527344 230.835938 221.074219 230.839844 C 220.617188 230.84375 220.257812 231.003906 220.003906 231.324219 C 219.753906 231.636719 219.625 232.082031 219.628906 232.644531 Z M 219.066406 234.800781 L 219.046875 232.785156 C 219.042969 232.347656 219.0625 232.015625 219.121094 231.796875 C 219.171875 231.574219 219.261719 231.363281 219.386719 231.171875 C 219.582031 230.875 219.824219 230.644531 220.113281 230.480469 C 220.402344 230.324219 220.71875 230.238281 221.070312 230.234375 C 221.703125 230.226562 222.207031 230.445312 222.578125 230.882812 C 222.945312 231.316406 223.136719 231.929688 223.144531 232.703125 L 223.167969 234.785156 C 223.171875 235.152344 223.148438 235.457031 223.097656 235.695312 C 223.050781 235.9375 222.96875 236.152344 222.851562 236.332031 C 222.664062 236.636719 222.421875 236.875 222.121094 237.039062 C 221.824219 237.207031 221.5 237.292969 221.144531 237.296875 C 220.792969 237.300781 220.476562 237.222656 220.183594 237.074219 C 219.894531 236.917969 219.644531 236.695312 219.429688 236.394531 C 219.308594 236.226562 219.21875 236.015625 219.160156 235.765625 C 219.101562 235.515625 219.070312 235.195312 219.066406 234.800781 Z M 224.472656 234.886719 C 224.480469 235.449219 224.613281 235.882812 224.875 236.199219 C 225.132812 236.507812 225.496094 236.660156 225.953125 236.652344 C 226.410156 236.648438 226.761719 236.492188 227.015625 236.179688 C 227.273438 235.863281 227.398438 235.433594 227.390625 234.871094 L 227.367188 232.535156 C 227.363281 231.984375 227.226562 231.554688 226.960938 231.242188 C 226.699219 230.933594 226.34375 230.785156 225.890625 230.789062 C 225.433594 230.792969 225.074219 230.953125 224.824219 231.273438 C 224.570312 231.585938 224.445312 232.03125 224.449219 232.59375 Z M 223.882812 234.75 L 223.863281 232.734375 C 223.859375 232.296875 223.882812 231.964844 223.9375 231.746094 C 223.988281 231.523438 224.078125 231.3125 224.207031 231.121094 C 224.402344 230.824219 224.640625 230.59375 224.933594 230.433594 C 225.21875 230.273438 225.539062 230.1875 225.886719 230.183594 C 226.519531 230.175781 227.023438 230.394531 227.394531 230.832031 C 227.765625 231.265625 227.957031 231.878906 227.964844 232.65625 L 227.988281 234.734375 C 227.992188 235.101562 227.964844 235.40625 227.917969 235.644531 C 227.867188 235.886719 227.785156 236.101562 227.667969 236.28125 C 227.480469 236.585938 227.238281 236.824219 226.9375 236.988281 C 226.640625 237.15625 226.316406 237.242188 225.960938 237.246094 C 225.613281 237.25 225.296875 237.175781 225.007812 237.023438 C 224.710938 236.867188 224.464844 236.644531 224.25 236.347656 C 224.125 236.175781 224.035156 235.964844 223.976562 235.714844 C 223.921875 235.464844 223.886719 235.144531 223.882812 234.75 Z M 230.769531 233.21875 C 230.351562 233.222656 230.003906 233.386719 229.730469 233.714844 C 229.449219 234.039062 229.3125 234.441406 229.316406 234.910156 C 229.320312 235.390625 229.472656 235.789062 229.761719 236.117188 C 230.054688 236.449219 230.402344 236.605469 230.8125 236.601562 C 231.207031 236.597656 231.535156 236.4375 231.804688 236.113281 C 232.066406 235.792969 232.195312 235.382812 232.191406 234.890625 C 232.1875 234.398438 232.050781 233.996094 231.78125 233.683594 C 231.511719 233.367188 231.175781 233.214844 230.769531 233.21875 Z M 230.882812 230.277344 L 231.621094 230.269531 L 230.238281 232.734375 C 230.367188 232.699219 230.484375 232.667969 230.589844 232.652344 C 230.699219 232.632812 230.800781 232.625 230.886719 232.625 C 231.4375 232.617188 231.894531 232.832031 232.257812 233.253906 C 232.621094 233.679688 232.808594 234.214844 232.8125 234.867188 C 232.820312 235.53125 232.628906 236.082031 232.242188 236.523438 C 231.855469 236.96875 231.363281 237.191406 230.761719 237.195312 C 230.175781 237.203125 229.683594 236.996094 229.296875 236.566406 C 228.902344 236.144531 228.703125 235.609375 228.695312 234.984375 C 228.691406 234.441406 228.933594 233.738281 229.425781 232.867188 C 229.472656 232.785156 229.511719 232.722656 229.535156 232.675781 Z M 230.882812 230.277344" fill-opacity="1" fill-rule="nonzero"/></g></g></g></g></g></svg>